<svg viewBox="0 0 512 512" xmlns="http://www.w3.org/2000/svg" xmlns:xlink="http://www.w3.org/1999/xlink" id="Capa_1" overflow="hidden"><g><g><path d="M256 0C114.833 0 0 114.833 0 256 0 397.167 114.833 512 256 512 397.167 512 512 397.147 512 256 512 114.853 397.167 0 256 0ZM256 472.341C136.725 472.341 39.659 375.295 39.659 256 39.659 136.705 136.725 39.659 256 39.659 375.275 39.659 472.341 136.705 472.341 256 472.341 375.295 375.295 472.341 256 472.341Z" fill="#FF9FCD"/></g></g><g><g><path d="M355.148 234.386 275.83 234.386 275.83 155.068C275.83 144.122 266.966 135.238 256 135.238 245.034 135.238 236.17 144.122 236.17 155.068L236.17 234.386 156.852 234.386C145.886 234.386 137.022 243.27 137.022 254.216 137.022 265.162 145.886 274.046 156.852 274.046L236.17 274.046 236.17 353.364C236.17 364.31 245.034 373.194 256 373.194 266.966 373.194 275.83 364.31 275.83 353.364L275.83 274.046 355.148 274.046C366.114 274.046 374.978 265.162 374.978 254.216 374.978 243.27 366.114 234.386 355.148 234.386Z" fill="#FF9FCD"/></g></g><g></g><g></g><g></g><g></g><g></g><g></g><g></g><g></g><g></g><g></g><g></g><g></g><g></g><g></g><g></g></svg>