<svg width="640" height="640" viewBox="0 0 480 480" xmlns="http://www.w3.org/2000/svg" xmlns:xlink="http://www.w3.org/1999/xlink" overflow="hidden"><path d="M240 0 136 0C131.582 0 128 3.58203 128 8L128 64 8 64C3.58203 64 0 67.582 0 72L0 472C0 476.418 3.58203 480 8 480L240 480C244.418 480 248 476.418 248 472L248 8C248 3.58203 244.418 0 240 0ZM232 416 144 416 144 400 232 400ZM16 120 128 120 128 360 16 360ZM232 88 144 88 144 64 232 64ZM16 376 128 376 128 400 16 400ZM144 384 144 104 232 104 232 384ZM232 16 232 48 144 48 144 16ZM128 80 128 104 16 104 16 80ZM16 416 128 416 128 464 16 464ZM144 464 144 432 232 432 232 464Z" fill="#87CEEB"/><path d="M479.742 437.984 383.742 69.9844C383.207 67.9219 381.871 66.1602 380.027 65.0859 378.188 64.0156 375.996 63.7227 373.938 64.2734L253.938 96.2734C249.688 97.4063 247.148 101.758 248.258 106.016L344.258 474.016C344.793 476.078 346.133 477.84 347.977 478.91 349.816 479.977 352.008 480.266 354.063 479.711L474.063 447.711C478.305 446.578 480.84 442.234 479.742 437.984ZM278.496 158.543 383.039 130.672 386.801 145.07 282.266 172.984ZM390.84 160.594 437.238 338.574 332.734 366.457 286.336 188.465ZM441.313 354.063 449.504 385.457 344.961 413.328 336.801 381.945ZM370.289 81.8008 379 115.199 274.457 143.063 265.754 109.68ZM357.711 462.199 349 428.801 453.543 400.922 462.246 434.305Z" fill="#87CEEB"/><path d="M104 144 40 144C35.582 144 32 147.582 32 152L32 216C32 220.418 35.582 224 40 224L104 224C108.418 224 112 220.418 112 216L112 152C112 147.582 108.418 144 104 144ZM96 208 48 208 48 160 96 160Z" fill="#87CEEB"/></svg>