<svg width="569.333" height="569.333" viewBox="-40 0 427 427.001" xmlns="http://www.w3.org/2000/svg" xmlns:xlink="http://www.w3.org/1999/xlink" overflow="hidden"><path d="M232.398 154.703C226.875 154.703 222.398 159.18 222.398 164.703L222.398 353.703C222.398 359.223 226.875 363.703 232.398 363.703 237.922 363.703 242.398 359.223 242.398 353.703L242.398 164.703C242.398 159.18 237.922 154.703 232.398 154.703Z" fill="#87CEEB"/><path d="M114.398 154.703C108.875 154.703 104.398 159.18 104.398 164.703L104.398 353.703C104.398 359.223 108.875 363.703 114.398 363.703 119.922 363.703 124.398 359.223 124.398 353.703L124.398 164.703C124.398 159.18 119.922 154.703 114.398 154.703Z" fill="#87CEEB"/><path d="M28.3984 127.121 28.3984 373.5C28.3984 388.063 33.7383 401.738 43.0664 411.551 52.3516 421.391 65.2734 426.977 78.7969 427L268 427C281.527 426.977 294.449 421.391 303.73 411.551 313.059 401.738 318.398 388.063 318.398 373.5L318.398 127.121C336.941 122.199 348.957 104.285 346.477 85.2578 343.992 66.2344 327.785 52.0039 308.598 52L257.398 52 257.398 39.5C257.457 28.9883 253.301 18.8945 245.859 11.4688 238.418 4.04688 228.309-0.0859375 217.797 0L129 0C118.488-0.0859375 108.379 4.04688 100.938 11.4688 93.4961 18.8945 89.3398 28.9883 89.3984 39.5L89.3984 52 38.1992 52C19.0117 52.0039 2.80469 66.2344 0.320312 85.2578-2.16016 104.285 9.85547 122.199 28.3984 127.121ZM268 407 78.7969 407C61.6992 407 48.3984 392.313 48.3984 373.5L48.3984 128 298.398 128 298.398 373.5C298.398 392.313 285.098 407 268 407ZM109.398 39.5C109.332 34.293 111.379 29.2813 115.074 25.6055 118.766 21.9297 123.789 19.9102 129 20L217.797 20C223.008 19.9102 228.031 21.9297 231.723 25.6055 235.418 29.2773 237.465 34.293 237.398 39.5L237.398 52 109.398 52ZM38.1992 72 308.598 72C318.539 72 326.598 80.0586 326.598 90 326.598 99.9414 318.539 108 308.598 108L38.1992 108C28.2578 108 20.1992 99.9414 20.1992 90 20.1992 80.0586 28.2578 72 38.1992 72Z" fill="#87CEEB"/><path d="M173.398 154.703C167.875 154.703 163.398 159.18 163.398 164.703L163.398 353.703C163.398 359.223 167.875 363.703 173.398 363.703 178.922 363.703 183.398 359.223 183.398 353.703L183.398 164.703C183.398 159.18 178.922 154.703 173.398 154.703Z" fill="#87CEEB"/></svg>