<svg viewBox="0 0 512 512" xmlns="http://www.w3.org/2000/svg" xmlns:xlink="http://www.w3.org/1999/xlink" id="Capa_1" overflow="hidden"><g><g><path d="M431.212 378.94C462.032 337.842 458.77 279.111 421.413 241.754 412.669 233.011 402.752 226.141 392.167 221.132L392.167 128.787 263.382 0 0.168 0 0.168 512 392.168 512 392.168 410.868C398.371 407.933 404.343 404.356 409.985 400.139L490.503 481.548 511.833 460.452 431.212 378.94ZM272.168 51.213 340.955 120 272.168 120 272.168 51.213ZM362.168 482 30.168 482 30.168 30 242.168 30 242.168 150 362.168 150 362.168 212.118C330.531 207.589 297.209 217.467 272.922 241.754 231.983 282.693 231.983 349.307 272.922 390.246 296.927 414.251 330.121 424.469 362.168 419.882L362.168 482ZM400.202 369.033C370.959 398.274 323.378 398.274 294.136 369.033 264.894 339.79 264.894 292.209 294.136 262.967 323.378 233.725 370.958 233.723 400.202 262.967 429.444 292.209 429.444 339.791 400.202 369.033Z" fill="#87CEEB"/></g></g><g><g><rect x="60.17" y="181" width="212" height="30" fill="#87CEEB"/></g></g><g><g><rect x="60.17" y="241" width="152" height="30" fill="#87CEEB"/></g></g><g><g><rect x="60.17" y="361" width="152" height="30" fill="#87CEEB"/></g></g><g><g><rect x="60.17" y="301" width="152" height="30" fill="#87CEEB"/></g></g><g></g><g></g><g></g><g></g><g></g><g></g><g></g><g></g><g></g><g></g><g></g><g></g><g></g><g></g><g></g></svg>