<svg viewBox="0 0 470 470" xmlns="http://www.w3.org/2000/svg" xmlns:xlink="http://www.w3.org/1999/xlink" overflow="hidden"><g><path d="M387.5 313.026C380.288 313.026 373.095 313.973 366.12 315.84 362.119 316.911 359.743 321.023 360.814 325.024 361.885 329.026 366.001 331.403 369.999 330.329 375.71 328.801 381.598 328.025 387.5 328.025 424.72 328.025 455 358.305 455 395.525 455 399.667 458.357 403.025 462.5 403.025 466.643 403.025 470 399.667 470 395.525 470 350.036 432.99 313.026 387.5 313.026Z" fill="#87CEEB"/><path d="M317.5 272.583C317.5 276.725 320.857 280.083 325 280.083 329.143 280.083 332.5 276.725 332.5 272.583L332.5 253.027C332.5 222.7 357.173 198.027 387.5 198.027 417.827 198.027 442.5 222.7 442.5 253.027L442.5 272.583C442.5 274.716 443.408 276.748 444.997 278.171 451.354 283.861 455 292.01 455 300.526 455 307.455 452.582 314.213 448.19 319.556 445.561 322.756 446.023 327.482 449.223 330.112 450.619 331.259 452.305 331.818 453.981 331.818 456.147 331.818 458.296 330.884 459.78 329.08 466.37 321.06 470 310.919 470 300.526 470 288.91 465.482 277.754 457.5 269.41L457.5 253.026C457.5 214.428 426.098 183.026 387.5 183.026 348.902 183.026 317.5 214.428 317.5 253.026L317.5 272.583Z" fill="#87CEEB"/><path d="M423.8 236.151 351.2 236.151C347.78 236.151 344.794 238.464 343.938 241.775 342.984 245.47 342.5 249.255 342.5 253.026 342.5 277.839 362.687 298.026 387.5 298.026 412.313 298.026 432.5 277.839 432.5 253.026 432.5 249.255 432.016 245.47 431.062 241.775 430.206 238.464 427.22 236.151 423.8 236.151ZM387.5 283.026C370.958 283.026 357.5 269.568 357.5 253.026 357.5 252.401 357.521 251.776 357.561 251.151L417.44 251.151C417.48 251.776 417.501 252.401 417.501 253.026 417.5 269.568 404.042 283.026 387.5 283.026Z" fill="#87CEEB"/><path d="M123.036 241.483C120.804 240.367 118.162 240.433 115.988 241.661 111.516 244.19 106.42 245.526 101.25 245.526 86.212 245.526 73.422 234.301 71.5 219.416 71.18 216.94 69.649 214.785 67.416 213.668 65.183 212.551 62.541 212.619 60.367 213.849 46.262 221.833 37.5 236.845 37.5 253.026 37.5 277.839 57.687 298.026 82.5 298.026 107.313 298.026 127.5 277.839 127.5 253.026 127.5 251.15 127.372 249.2 127.118 247.232 126.799 244.755 125.269 242.601 123.036 241.483ZM82.5 283.026C65.958 283.026 52.5 269.568 52.5 253.026 52.5 245.683 55.208 238.701 59.907 233.31 66.863 249.431 82.947 260.526 101.25 260.526 104.832 260.526 108.392 260.097 111.849 259.261 108.971 272.821 96.905 283.026 82.5 283.026Z" fill="#87CEEB"/><path d="M20 318.707C24.142 318.707 27.5 315.349 27.5 311.207L27.5 253.026C27.5 222.699 52.173 198.026 82.5 198.026 112.827 198.026 137.5 222.699 137.5 253.026L137.5 273.734C137.5 277.876 140.858 281.234 145 281.234 149.142 281.234 152.5 277.876 152.5 273.734L152.5 253.026C152.5 214.428 121.098 183.026 82.5 183.026 43.902 183.026 12.5 214.428 12.5 253.026L12.5 311.207C12.5 315.349 15.858 318.707 20 318.707Z" fill="#87CEEB"/><path d="M109.186 325.025C110.257 321.024 107.881 316.912 103.88 315.84 96.904 313.973 89.711 313.026 82.5 313.026 37.009 313.026 1.42109e-14 350.035 1.42109e-14 395.526 1.42109e-14 399.668 3.358 403.026 7.5 403.026 11.642 403.026 15 399.668 15 395.526 15 358.306 45.28 328.026 82.5 328.026 88.402 328.026 94.29 328.801 100.001 330.33 104.004 331.399 108.115 329.026 109.186 325.025Z" fill="#87CEEB"/><path d="M149.18 190.144C146.965 200.479 149.194 211.31 155.514 220.009 167.668 236.738 191.165 240.459 207.894 228.305 208.872 227.594 209.802 226.824 210.706 226.025 218.259 228.912 226.444 230.509 235 230.509 243.556 230.509 251.741 228.912 259.294 226.025 260.198 226.825 261.128 227.595 262.107 228.305 268.584 233.011 276.213 235.475 284.068 235.475 286.041 235.475 288.029 235.319 290.014 235.005 299.908 233.438 308.599 228.112 314.486 220.009 320.806 211.31 323.036 200.479 320.822 190.144 328.688 183.084 333.251 173.012 333.251 162.259 333.251 151.506 328.688 141.434 320.822 134.374 323.036 124.039 320.806 113.208 314.486 104.509 308.167 95.81 298.554 90.343 288.041 89.256 283.757 79.592 275.588 72.141 265.361 68.818 255.135 65.495 244.146 66.723 235.001 72.022 225.855 66.722 214.866 65.494 204.64 68.818 194.413 72.141 186.244 79.593 181.961 89.256 171.448 90.344 161.835 95.811 155.515 104.509 149.195 113.209 146.966 124.039 149.181 134.374 141.314 141.434 136.751 151.506 136.751 162.259 136.75 173.012 141.312 183.084 149.18 190.144ZM181.75 162.259C181.75 146.65 188.645 131.958 200.24 121.941 209.004 149.88 235.201 169.759 265.375 169.759 273.149 169.759 280.854 168.427 288.13 165.86 286.273 193.55 263.152 215.509 235 215.509 205.638 215.509 181.75 191.622 181.75 162.259ZM161.919 143.443C164.853 141.515 166.057 137.809 164.816 134.525 162.124 127.398 163.183 119.472 167.649 113.325 172.115 107.179 179.323 103.722 186.936 104.08 190.464 104.252 193.595 101.954 194.522 98.568 196.534 91.22 202.048 85.431 209.274 83.083 216.5 80.734 224.364 82.177 230.312 86.94 233.053 89.135 236.949 89.134 239.689 86.94 245.636 82.177 253.502 80.736 260.726 83.083 267.952 85.431 273.466 91.22 275.479 98.569 276.406 101.954 279.543 104.235 283.064 104.08 290.67 103.733 297.885 107.179 302.351 113.326 306.817 119.473 307.876 127.398 305.184 134.526 303.944 137.81 305.148 141.515 308.081 143.443 314.448 147.628 318.25 154.662 318.25 162.259 318.25 169.856 314.448 176.89 308.081 181.075 305.147 183.003 303.943 186.708 305.184 189.992 307.876 197.12 306.817 205.045 302.351 211.192 298.819 216.054 293.604 219.25 287.667 220.19 282.989 220.931 278.313 220.18 274.157 218.108 291.732 205.748 303.25 185.33 303.25 162.259 303.25 159.423 303.055 156.465 302.669 153.467 302.351 150.99 300.82 148.835 298.588 147.717 296.357 146.6 293.714 146.666 291.539 147.895 283.598 152.385 274.55 154.759 265.375 154.759 238.683 154.759 215.981 134.831 212.568 108.405 212.249 105.928 210.717 103.774 208.484 102.657 206.252 101.54 203.609 101.608 201.436 102.838 180.041 114.947 166.75 137.716 166.75 162.258 166.75 185.326 178.265 205.743 195.837 218.103 186.189 222.892 174.188 220.19 167.649 211.191 163.184 205.044 162.125 197.119 164.816 189.991 166.057 186.707 164.853 183.001 161.919 181.073 155.551 176.889 151.75 169.855 151.75 162.258 151.75 154.661 155.551 147.627 161.919 143.443Z" fill="#87CEEB"/><path d="M320.777 299.266C320.452 298.92 320.104 298.61 319.733 298.339 297.051 278.538 267.403 266.526 235 266.526 202.596 266.526 172.947 278.539 150.264 298.342 149.895 298.611 149.548 298.921 149.224 299.265 122.72 322.908 106 357.299 106 395.526 106 399.668 109.358 403.026 113.5 403.026 117.642 403.026 121 399.668 121 395.526 121 363.82 134.016 335.1 154.979 314.415 177.716 332.424 205.87 342.276 235 342.276 264.13 342.276 292.283 332.424 315.021 314.415 335.984 335.1 349 363.82 349 395.526 349 399.668 352.357 403.026 356.5 403.026 360.643 403.026 364 399.668 364 395.526 364 357.299 347.28 322.909 320.777 299.266ZM235 327.276C210.223 327.276 186.245 319.209 166.565 304.411 185.637 290.05 209.341 281.526 235 281.526 260.659 281.526 284.363 290.05 303.436 304.411 283.754 319.209 259.777 327.276 235 327.276Z" fill="#87CEEB"/></g></svg>