<svg width="952" height="144" xmlns="http://www.w3.org/2000/svg" xmlns:xlink="http://www.w3.org/1999/xlink" overflow="hidden"><defs><clipPath id="clip0"><path d="M150 258 1102 258 1102 402 150 402Z" fill-rule="evenodd" clip-rule="evenodd"/></clipPath><clipPath id="clip1"><path d="M151 259 1101 259 1101 402 151 402Z" fill-rule="evenodd" clip-rule="evenodd"/></clipPath><clipPath id="clip2"><path d="M151 259 1101 259 1101 402 151 402Z" fill-rule="evenodd" clip-rule="evenodd"/></clipPath><clipPath id="clip3"><path d="M151 259 1197 259 1197 402 151 402Z" fill-rule="evenodd" clip-rule="evenodd"/></clipPath></defs><g clip-path="url(#clip0)" transform="translate(-150 -258)"><g clip-path="url(#clip1)"><g clip-path="url(#clip2)"><g clip-path="url(#clip3)"><path d="M886.835 71.5351C886.835 89.8463 898.9 102.101 915.972 102.101 933.034 102.101 945.251 89.8463 945.251 71.8153 945.251 53.7891 933.172 41.3868 915.972 41.3868 898.767 41.382 886.835 53.7843 886.835 71.5351M933.599 71.8106C933.599 89.9841 927.486 99.1421 916.252 99.1421 903.902 99.1421 898.349 89.4236 898.349 70.1243 898.349 52.7963 903.76 44.3413 916.252 44.3413 929.172 44.3413 933.599 53.6371 933.599 71.8106M850.455 44.3413C859.604 44.3413 862.805 50.5401 862.805 62.5196 862.805 74.4943 858.502 80.4081 849.904 80.4081 841.435 80.4081 837.963 74.7746 837.963 62.5196 837.963 50.3975 841.017 44.3413 850.455 44.3413M867.935 48.146C863.081 43.6383 857.257 41.3868 850.313 41.3868 836.571 41.3868 827.698 50.1221 827.698 62.3771 827.698 70.8321 831.436 76.6033 839.35 81.3913 831.303 83.0871 827.147 87.4523 827.147 93.2331 827.147 103.232 838.376 103.517 854.198 104.918 866.691 106.049 872.927 109.426 872.927 116.755 872.927 125.49 864.605 131.547 852.669 131.547 838.371 131.547 830.049 125.628 830.049 117.463 830.049 114.076 831.431 111.255 834.353 108.58 833.93 106.889 832.961 106.329 831.294 106.329 827.688 106.329 824.226 110.694 824.226 116.617 824.226 127.039 834.215 134.511 852.811 134.511 870.562 134.511 880.28 125.908 880.28 113.368 880.28 101.394 871.958 96.0403 855.162 94.4966 840.879 93.2283 833.792 94.0691 833.792 88.7158 833.792 85.1913 838.371 83.2248 847.258 83.2248L849.472 83.2248C864.045 83.2248 873.07 75.1973 873.07 62.3723 873.07 58.0071 872.096 54.3448 869.735 50.1173 872.927 47.576 875.283 46.455 876.542 46.455 878.623 46.455 878.623 52.2311 882.779 52.2311 885.42 52.2311 887.073 50.3975 887.073 47.3005 887.073 44.1988 884.166 41.382 880.01 41.382 876.262 41.382 872.927 43.9233 867.935 48.146M809.458 39.8335C803.035 41.508 796.492 42.6847 789.888 43.3533L789.888 45.8945 791.973 45.8945C797.806 45.8945 798.766 47.7233 798.766 55.4753L798.766 91.5373C798.766 95.0666 795.996 97.4511 790.999 97.4511 790.306 97.4511 789.475 97.4511 788.648 97.3181L788.648 100.13 818.473 100.13 818.473 97.3181 817.086 97.3181C810.004 97.3181 809.458 94.2163 809.458 87.1673ZM803.63 10.4168C799.735 10.4168 796.695 13.5185 796.695 17.4705 796.695 21.2658 799.877 24.5053 803.63 24.5053 807.377 24.5053 810.569 21.4035 810.569 17.4705 810.569 13.5185 807.515 10.4168 803.63 10.4168M698.464 6.58351 698.464 9.82776 698.873 9.82776C708.306 9.82776 709.969 14.6205 714.139 24.3438L747.024 102.106 751.883 102.106 780.103 24.4815C783.428 16.0313 785.589 11.2338 792.41 9.83251L792.41 6.58351 769.254 6.58351 769.254 9.82776C774.745 10.1888 777.191 13.3523 777.191 17.8553 777.191 19.8265 776.635 22.363 775.524 25.1798L754.096 85.6188 726.342 20.1068C725.368 17.708 724.955 15.8793 724.955 14.7583 724.955 11.514 727.454 9.82301 732.171 9.82301L736.892 9.82301 736.892 6.58351ZM725.929 100.135 725.929 99.8451C725.929 86.8871 716.918 78.8548 704.15 78.8548 688.2 78.8548 676.809 91.3996 676.809 109.991 676.809 127.742 687.772 139.289 704.283 139.289 716.913 139.289 725.929 132.668 727.321 123.096L724.129 123.096C722.186 130.701 715.389 135.632 706.231 135.632 692.912 135.632 688.328 127.314 688.328 110.414 688.328 107.17 688.475 103.792 688.603 100.13L725.929 100.13ZM714.695 97.3181 688.888 97.3181C689.995 86.8871 694.574 81.8141 703.176 81.8141 710.396 81.8141 714.833 85.9038 714.833 93.0858 714.833 93.7888 714.833 95.1996 714.695 97.3181M653.43 56.0358 653.43 86.7493C647.188 81.2536 642.186 78.7171 635.247 78.7171 619.149 78.7171 607.64 90.8391 607.64 109.716 607.64 127.319 618.322 139.441 633.304 139.441 641.07 139.441 647.597 136.344 653.43 130.141 653.43 133.095 653.838 136.197 654.669 139.441 660.084 138.6 666.05 137.75 672.572 136.905L672.572 134.373C671.879 134.373 671.328 134.515 670.777 134.515 665.504 134.515 663.699 131.409 663.699 123.942L663.699 40.3988C657.372 42.0794 650.922 43.2563 644.409 43.9185L644.409 46.3125 646.347 46.3125C652.318 46.3173 653.43 48.4216 653.43 56.0358M653.287 91.2571 653.287 126.051C648.57 132.25 642.885 135.351 636.638 135.351 626.502 135.351 619.287 126.474 619.287 110.134 619.287 92.0978 627.195 82.2416 637.47 82.2416 642.885 82.2416 648.433 85.1961 653.287 91.2571M578.052 65.8968 578.052 88.2931C570.974 93.9313 565.141 96.7528 560.976 96.7528 555.988 96.7528 552.796 93.3708 552.796 87.5948 552.801 77.4488 560.847 71.8106 578.052 65.8968M588.321 62.2298C588.321 49.5568 586.645 41.5245 567.64 41.5245 552.24 41.5245 544.184 48.5688 544.184 54.2071 544.184 57.0286 545.856 58.7148 548.345 58.7148 553.205 58.7148 553.342 53.7843 554.183 50.9675 555.432 46.74 559.864 44.4885 565.968 44.4885 574.855 44.4885 578.047 48.1508 578.047 56.1736L578.047 62.6526C553.623 72.0956 541.548 79.4201 541.548 90.4116 541.548 97.5936 546.132 102.386 553.756 102.386 560.971 102.386 568.742 98.8618 578.042 92.2356 579.282 98.8618 583.039 102.097 589.419 102.097 596.216 102.097 600.382 97.7361 600.382 90.5446L600.382 89.8416 598.448 89.8416C597.47 94.3493 595.532 96.6008 592.473 96.6008 589.01 96.6008 588.317 94.2116 588.317 89.8416L588.317 62.2298ZM514.273 18.7055 514.273 49.4143C508.037 43.9233 503.04 41.3868 496.1 41.3868 480.002 41.3868 468.483 53.4993 468.483 72.3806 468.483 89.9888 479.171 102.101 494.157 102.101 501.923 102.101 508.45 99.0091 514.273 92.8056 514.273 95.7601 514.696 98.8618 515.528 102.101 520.938 101.261 526.909 100.415 533.43 99.5696L533.43 97.0331C532.737 97.0331 532.176 97.1756 531.63 97.1756 526.353 97.1756 524.553 94.0738 524.553 86.6068L524.553 3.06375C518.225 4.74786 511.773 5.92484 505.258 6.58351L505.258 8.98226 507.21 8.98226C513.172 8.98226 514.273 11.096 514.273 18.7055M514.136 53.9221 514.136 88.7158C509.419 94.9241 503.728 98.0163 497.487 98.0163 487.36 98.0163 480.145 89.1386 480.145 72.7986 480.145 54.7628 488.058 44.9065 498.318 44.9065 503.728 44.9065 509.281 47.861 514.136 53.9221M451.934 39.8335C445.513 41.5068 438.972 42.6835 432.369 43.3533L432.369 45.8945 434.45 45.8945C440.283 45.8945 441.256 47.7233 441.256 55.4753L441.256 91.5373C441.256 95.0666 438.482 97.4511 433.476 97.4511 432.782 97.4511 431.956 97.4511 431.125 97.3181L431.125 100.13 460.955 100.13 460.955 97.3181 459.563 97.3181C452.485 97.3181 451.93 94.2163 451.93 87.1673L451.93 39.8335ZM446.106 10.4168C442.216 10.4168 439.166 13.5185 439.166 17.4705 439.166 21.2658 442.358 24.5053 446.106 24.5053 449.854 24.5053 453.041 21.4035 453.041 17.4705 453.036 13.5185 449.987 10.4168 446.106 10.4168M415.872 41.382C415.174 43.4958 414.343 45.3198 412.956 46.8825 408.795 43.0778 404.772 41.5245 399.499 41.5245 389.239 41.5245 382.988 48.146 382.988 56.7388 382.988 62.6526 386.318 67.7208 392.702 71.5351 398.392 74.9171 404.914 76.6033 409.911 80.8356 412.823 83.3673 414.21 85.4858 414.21 88.8631 414.21 94.7816 410.187 98.8666 402.971 98.8666 393.956 98.8666 388.265 93.6558 385.487 82.9446L382.565 82.9446 382.565 102.101 385.482 102.101C386.042 99.8451 386.874 97.8786 388.261 96.1828 393.11 100.558 397.561 102.244 403.522 102.244 414.899 102.244 421.834 95.1996 421.834 84.0751 421.834 77.0261 417.677 71.5351 409.488 67.3076 399.219 62.0873 390.199 60.5436 390.199 52.7963 390.199 48.0083 393.946 44.4838 400.05 44.4838 407.403 44.4838 412.267 49.4096 415.872 59.6981L418.784 59.6981 418.784 41.382ZM346.195 39.8335C340.504 41.667 334.4 42.7928 328.016 43.3533L328.016 45.8945 330.097 45.8945C335.925 45.8945 336.894 47.7233 336.894 55.4753L336.894 91.5373C336.894 94.9241 334.396 97.4511 329.817 97.4511 329.261 97.4511 328.567 97.4511 328.016 97.3181L328.016 100.13 357.295 100.13 357.295 97.3181 355.357 97.3181C348.137 97.3181 347.439 94.2163 347.439 87.1673L347.439 64.2058C347.439 55.8933 354.797 45.8945 360.763 45.8945 362.843 45.8945 364.368 47.443 364.933 50.2598 365.48 53.0766 367.009 54.4873 369.641 54.4873 372.415 54.4873 374.5 52.3783 374.5 49.5568 374.5 45.0443 370.196 41.382 364.368 41.382 357.709 41.382 350.911 46.1748 347.301 54.7628 347.439 53.2191 347.577 51.6658 347.577 50.1173 347.577 46.455 347.031 43.0778 346.195 39.8335M319.523 62.7951 319.523 62.5148C319.523 49.5521 310.503 41.5198 297.74 41.5198 281.789 41.5198 270.413 54.0646 270.413 72.6561 270.413 90.4068 281.371 101.959 297.882 101.959 310.508 101.959 319.528 95.3373 320.92 85.7566L317.723 85.7566C315.78 93.3661 308.983 98.3013 299.82 98.3013 286.501 98.3013 281.922 89.9888 281.922 73.0836 281.922 69.8441 282.06 66.4621 282.203 62.7951ZM308.285 59.9783 282.473 59.9783C283.58 49.5568 288.164 44.4838 296.766 44.4838 303.977 44.4838 308.423 48.564 308.423 55.7508 308.427 56.4586 308.427 57.8693 308.285 59.9783M206.022 43.3485 206.022 46.3173C210.734 47.1581 213.095 50.8203 213.095 51.5233 213.095 51.9556 213.931 53.3568 215.313 56.4586L235.709 102.101 239.182 102.101 257.916 60.1208C261.521 51.8083 264.718 47.3005 269.017 46.3173L269.017 43.3485 251.118 43.3485 251.118 46.3173C255.698 47.0155 257.36 48.4216 257.36 51.9556 257.36 53.0766 256.809 55.0478 255.835 57.4513L241.267 90.5541 225.867 55.1951C224.756 52.6586 224.195 51.1053 224.195 50.4071 224.195 47.31 226.281 46.3268 230.86 46.3268L230.86 43.3485ZM195.71 39.8335C189.288 41.5076 182.747 42.6843 176.144 43.3533L176.144 45.8945 178.225 45.8945C184.058 45.8945 185.022 47.7233 185.022 55.4753L185.022 91.5373C185.022 95.0666 182.248 97.4511 177.251 97.4511 176.558 97.4511 175.731 97.4511 174.895 97.3181L174.895 100.13 204.73 100.13 204.73 97.3181 203.348 97.3181C196.265 97.3181 195.714 94.2163 195.714 87.1673L195.714 39.8335ZM189.886 10.4168C185.996 10.4168 182.946 13.5185 182.946 17.4705 182.946 21.2658 186.138 24.5053 189.886 24.5053 193.634 24.5053 196.826 21.4035 196.826 17.4705 196.826 13.5185 193.767 10.4168 189.886 10.4168M122.864 87.1721 122.864 58.7101C122.864 56.1688 130.905 45.8898 141.18 45.8898 149.084 45.8898 151.169 50.3975 151.169 59.1281L151.169 87.1673C151.169 94.2116 150.608 97.3181 143.673 97.3181L142.286 97.3181 142.286 100.13 170.454 100.13 170.454 97.3181 169.067 97.3181C161.989 97.3181 161.434 94.2163 161.434 87.1673L161.434 60.1161C161.434 47.7185 155.886 41.382 144.785 41.382 136.596 41.382 128.687 45.4623 122.864 53.2191 122.864 52.2311 122.997 51.2431 122.997 50.3975 122.997 46.5928 122.446 43.073 121.61 39.8288 115.788 41.6501 109.785 42.8303 103.707 43.3485L103.707 45.8898 105.787 45.8898C111.616 45.8898 112.585 47.7185 112.585 55.4706L112.585 91.5326C112.585 94.9193 110.091 97.4463 105.512 97.4463 104.956 97.4463 104.258 97.4463 103.707 97.3133L103.707 100.125 131.874 100.125 131.874 97.3133 130.483 97.3133C123.419 97.3181 122.864 94.2163 122.864 87.1721M4.75 6.58351 4.75 9.97026C18.069 9.97026 18.905 13.0625 18.905 23.3273L18.905 71.9958C18.905 91.1241 32.3618 102.097 55.2616 102.097 79.6813 102.097 92.3068 90.4163 92.3068 67.6353L92.3068 23.3273C92.3068 15.4518 97.1661 10.6685 105.493 9.97026L105.493 6.58351 74.9646 6.58351 74.9646 9.97026C84.3981 9.97026 88.4261 14.041 88.4261 23.3273L88.4261 67.6353C88.4261 87.4666 76.2091 97.5889 57.4798 97.5889 48.7351 97.5889 41.6623 94.3541 37.9193 90.4163 33.7583 85.9228 32.7845 79.7288 32.7845 69.7443L32.7845 23.3273C32.7845 13.205 33.1978 9.97026 46.9348 9.97026L46.9348 6.58351Z" fill="#FFFFFF" fill-rule="evenodd" transform="matrix(1 0 -0 1.00351 151 259)"/><path d="M886.835 71.5351C886.835 89.8463 898.9 102.101 915.972 102.101 933.034 102.101 945.251 89.8463 945.251 71.8153 945.251 53.7891 933.172 41.3868 915.972 41.3868 898.767 41.382 886.835 53.7843 886.835 71.5351M933.599 71.8106C933.599 89.9841 927.486 99.1421 916.252 99.1421 903.902 99.1421 898.349 89.4236 898.349 70.1243 898.349 52.7963 903.76 44.3413 916.252 44.3413 929.172 44.3413 933.599 53.6371 933.599 71.8106M850.455 44.3413C859.604 44.3413 862.805 50.5401 862.805 62.5196 862.805 74.4943 858.502 80.4081 849.904 80.4081 841.435 80.4081 837.963 74.7746 837.963 62.5196 837.963 50.3975 841.017 44.3413 850.455 44.3413M867.935 48.146C863.081 43.6383 857.257 41.3868 850.313 41.3868 836.571 41.3868 827.698 50.1221 827.698 62.3771 827.698 70.8321 831.436 76.6033 839.35 81.3913 831.303 83.0871 827.147 87.4523 827.147 93.2331 827.147 103.232 838.376 103.517 854.198 104.918 866.691 106.049 872.927 109.426 872.927 116.755 872.927 125.49 864.605 131.547 852.669 131.547 838.371 131.547 830.049 125.628 830.049 117.463 830.049 114.076 831.431 111.255 834.353 108.58 833.93 106.889 832.961 106.329 831.294 106.329 827.688 106.329 824.226 110.694 824.226 116.617 824.226 127.039 834.215 134.511 852.811 134.511 870.562 134.511 880.28 125.908 880.28 113.368 880.28 101.394 871.958 96.0403 855.162 94.4966 840.879 93.2283 833.792 94.0691 833.792 88.7158 833.792 85.1913 838.371 83.2248 847.258 83.2248L849.472 83.2248C864.045 83.2248 873.07 75.1973 873.07 62.3723 873.07 58.0071 872.096 54.3448 869.735 50.1173 872.927 47.576 875.283 46.455 876.542 46.455 878.623 46.455 878.623 52.2311 882.779 52.2311 885.42 52.2311 887.073 50.3975 887.073 47.3005 887.073 44.1988 884.166 41.382 880.01 41.382 876.262 41.382 872.927 43.9233 867.935 48.146M809.458 39.8335C803.035 41.508 796.492 42.6847 789.888 43.3533L789.888 45.8945 791.973 45.8945C797.806 45.8945 798.766 47.7233 798.766 55.4753L798.766 91.5373C798.766 95.0666 795.996 97.4511 790.999 97.4511 790.306 97.4511 789.475 97.4511 788.648 97.3181L788.648 100.13 818.473 100.13 818.473 97.3181 817.086 97.3181C810.004 97.3181 809.458 94.2163 809.458 87.1673ZM803.63 10.4168C799.735 10.4168 796.695 13.5185 796.695 17.4705 796.695 21.2658 799.877 24.5053 803.63 24.5053 807.377 24.5053 810.569 21.4035 810.569 17.4705 810.569 13.5185 807.515 10.4168 803.63 10.4168M698.464 6.58351 698.464 9.82776 698.873 9.82776C708.306 9.82776 709.969 14.6205 714.139 24.3438L747.024 102.106 751.883 102.106 780.103 24.4815C783.428 16.0313 785.589 11.2338 792.41 9.83251L792.41 6.58351 769.254 6.58351 769.254 9.82776C774.745 10.1888 777.191 13.3523 777.191 17.8553 777.191 19.8265 776.635 22.363 775.524 25.1798L754.096 85.6188 726.342 20.1068C725.368 17.708 724.955 15.8793 724.955 14.7583 724.955 11.514 727.454 9.82301 732.171 9.82301L736.892 9.82301 736.892 6.58351ZM725.929 100.135 725.929 99.8451C725.929 86.8871 716.918 78.8548 704.15 78.8548 688.2 78.8548 676.809 91.3996 676.809 109.991 676.809 127.742 687.772 139.289 704.283 139.289 716.913 139.289 725.929 132.668 727.321 123.096L724.129 123.096C722.186 130.701 715.389 135.632 706.231 135.632 692.912 135.632 688.328 127.314 688.328 110.414 688.328 107.17 688.475 103.792 688.603 100.13L725.929 100.13ZM714.695 97.3181 688.888 97.3181C689.995 86.8871 694.574 81.8141 703.176 81.8141 710.396 81.8141 714.833 85.9038 714.833 93.0858 714.833 93.7888 714.833 95.1996 714.695 97.3181M653.43 56.0358 653.43 86.7493C647.188 81.2536 642.186 78.7171 635.247 78.7171 619.149 78.7171 607.64 90.8391 607.64 109.716 607.64 127.319 618.322 139.441 633.304 139.441 641.07 139.441 647.597 136.344 653.43 130.141 653.43 133.095 653.838 136.197 654.669 139.441 660.084 138.6 666.05 137.75 672.572 136.905L672.572 134.373C671.879 134.373 671.328 134.515 670.777 134.515 665.504 134.515 663.699 131.409 663.699 123.942L663.699 40.3988C657.372 42.0794 650.922 43.2563 644.409 43.9185L644.409 46.3125 646.347 46.3125C652.318 46.3173 653.43 48.4216 653.43 56.0358M653.287 91.2571 653.287 126.051C648.57 132.25 642.885 135.351 636.638 135.351 626.502 135.351 619.287 126.474 619.287 110.134 619.287 92.0978 627.195 82.2416 637.47 82.2416 642.885 82.2416 648.433 85.1961 653.287 91.2571M578.052 65.8968 578.052 88.2931C570.974 93.9313 565.141 96.7528 560.976 96.7528 555.988 96.7528 552.796 93.3708 552.796 87.5948 552.801 77.4488 560.847 71.8106 578.052 65.8968M588.321 62.2298C588.321 49.5568 586.645 41.5245 567.64 41.5245 552.24 41.5245 544.184 48.5688 544.184 54.2071 544.184 57.0286 545.856 58.7148 548.345 58.7148 553.205 58.7148 553.342 53.7843 554.183 50.9675 555.432 46.74 559.864 44.4885 565.968 44.4885 574.855 44.4885 578.047 48.1508 578.047 56.1736L578.047 62.6526C553.623 72.0956 541.548 79.4201 541.548 90.4116 541.548 97.5936 546.132 102.386 553.756 102.386 560.971 102.386 568.742 98.8618 578.042 92.2356 579.282 98.8618 583.039 102.097 589.419 102.097 596.216 102.097 600.382 97.7361 600.382 90.5446L600.382 89.8416 598.448 89.8416C597.47 94.3493 595.532 96.6008 592.473 96.6008 589.01 96.6008 588.317 94.2116 588.317 89.8416L588.317 62.2298ZM514.273 18.7055 514.273 49.4143C508.037 43.9233 503.04 41.3868 496.1 41.3868 480.002 41.3868 468.483 53.4993 468.483 72.3806 468.483 89.9888 479.171 102.101 494.157 102.101 501.923 102.101 508.45 99.0091 514.273 92.8056 514.273 95.7601 514.696 98.8618 515.528 102.101 520.938 101.261 526.909 100.415 533.43 99.5696L533.43 97.0331C532.737 97.0331 532.176 97.1756 531.63 97.1756 526.353 97.1756 524.553 94.0738 524.553 86.6068L524.553 3.06375C518.225 4.74786 511.773 5.92484 505.258 6.58351L505.258 8.98226 507.21 8.98226C513.172 8.98226 514.273 11.096 514.273 18.7055M514.136 53.9221 514.136 88.7158C509.419 94.9241 503.728 98.0163 497.487 98.0163 487.36 98.0163 480.145 89.1386 480.145 72.7986 480.145 54.7628 488.058 44.9065 498.318 44.9065 503.728 44.9065 509.281 47.861 514.136 53.9221M451.934 39.8335C445.513 41.5068 438.972 42.6835 432.369 43.3533L432.369 45.8945 434.45 45.8945C440.283 45.8945 441.256 47.7233 441.256 55.4753L441.256 91.5373C441.256 95.0666 438.482 97.4511 433.476 97.4511 432.782 97.4511 431.956 97.4511 431.125 97.3181L431.125 100.13 460.955 100.13 460.955 97.3181 459.563 97.3181C452.485 97.3181 451.93 94.2163 451.93 87.1673L451.93 39.8335ZM446.106 10.4168C442.216 10.4168 439.166 13.5185 439.166 17.4705 439.166 21.2658 442.358 24.5053 446.106 24.5053 449.854 24.5053 453.041 21.4035 453.041 17.4705 453.036 13.5185 449.987 10.4168 446.106 10.4168M415.872 41.382C415.174 43.4958 414.343 45.3198 412.956 46.8825 408.795 43.0778 404.772 41.5245 399.499 41.5245 389.239 41.5245 382.988 48.146 382.988 56.7388 382.988 62.6526 386.318 67.7208 392.702 71.5351 398.392 74.9171 404.914 76.6033 409.911 80.8356 412.823 83.3673 414.21 85.4858 414.21 88.8631 414.21 94.7816 410.187 98.8666 402.971 98.8666 393.956 98.8666 388.265 93.6558 385.487 82.9446L382.565 82.9446 382.565 102.101 385.482 102.101C386.042 99.8451 386.874 97.8786 388.261 96.1828 393.11 100.558 397.561 102.244 403.522 102.244 414.899 102.244 421.834 95.1996 421.834 84.0751 421.834 77.0261 417.677 71.5351 409.488 67.3076 399.219 62.0873 390.199 60.5436 390.199 52.7963 390.199 48.0083 393.946 44.4838 400.05 44.4838 407.403 44.4838 412.267 49.4096 415.872 59.6981L418.784 59.6981 418.784 41.382ZM346.195 39.8335C340.504 41.667 334.4 42.7928 328.016 43.3533L328.016 45.8945 330.097 45.8945C335.925 45.8945 336.894 47.7233 336.894 55.4753L336.894 91.5373C336.894 94.9241 334.396 97.4511 329.817 97.4511 329.261 97.4511 328.567 97.4511 328.016 97.3181L328.016 100.13 357.295 100.13 357.295 97.3181 355.357 97.3181C348.137 97.3181 347.439 94.2163 347.439 87.1673L347.439 64.2058C347.439 55.8933 354.797 45.8945 360.763 45.8945 362.843 45.8945 364.368 47.443 364.933 50.2598 365.48 53.0766 367.009 54.4873 369.641 54.4873 372.415 54.4873 374.5 52.3783 374.5 49.5568 374.5 45.0443 370.196 41.382 364.368 41.382 357.709 41.382 350.911 46.1748 347.301 54.7628 347.439 53.2191 347.577 51.6658 347.577 50.1173 347.577 46.455 347.031 43.0778 346.195 39.8335M319.523 62.7951 319.523 62.5148C319.523 49.5521 310.503 41.5198 297.74 41.5198 281.789 41.5198 270.413 54.0646 270.413 72.6561 270.413 90.4068 281.371 101.959 297.882 101.959 310.508 101.959 319.528 95.3373 320.92 85.7566L317.723 85.7566C315.78 93.3661 308.983 98.3013 299.82 98.3013 286.501 98.3013 281.922 89.9888 281.922 73.0836 281.922 69.8441 282.06 66.4621 282.203 62.7951ZM308.285 59.9783 282.473 59.9783C283.58 49.5568 288.164 44.4838 296.766 44.4838 303.977 44.4838 308.423 48.564 308.423 55.7508 308.427 56.4586 308.427 57.8693 308.285 59.9783M206.022 43.3485 206.022 46.3173C210.734 47.1581 213.095 50.8203 213.095 51.5233 213.095 51.9556 213.931 53.3568 215.313 56.4586L235.709 102.101 239.182 102.101 257.916 60.1208C261.521 51.8083 264.718 47.3005 269.017 46.3173L269.017 43.3485 251.118 43.3485 251.118 46.3173C255.698 47.0155 257.36 48.4216 257.36 51.9556 257.36 53.0766 256.809 55.0478 255.835 57.4513L241.267 90.5541 225.867 55.1951C224.756 52.6586 224.195 51.1053 224.195 50.4071 224.195 47.31 226.281 46.3268 230.86 46.3268L230.86 43.3485ZM195.71 39.8335C189.288 41.5076 182.747 42.6843 176.144 43.3533L176.144 45.8945 178.225 45.8945C184.058 45.8945 185.022 47.7233 185.022 55.4753L185.022 91.5373C185.022 95.0666 182.248 97.4511 177.251 97.4511 176.558 97.4511 175.731 97.4511 174.895 97.3181L174.895 100.13 204.73 100.13 204.73 97.3181 203.348 97.3181C196.265 97.3181 195.714 94.2163 195.714 87.1673L195.714 39.8335ZM189.886 10.4168C185.996 10.4168 182.946 13.5185 182.946 17.4705 182.946 21.2658 186.138 24.5053 189.886 24.5053 193.634 24.5053 196.826 21.4035 196.826 17.4705 196.826 13.5185 193.767 10.4168 189.886 10.4168M122.864 87.1721 122.864 58.7101C122.864 56.1688 130.905 45.8898 141.18 45.8898 149.084 45.8898 151.169 50.3975 151.169 59.1281L151.169 87.1673C151.169 94.2116 150.608 97.3181 143.673 97.3181L142.286 97.3181 142.286 100.13 170.454 100.13 170.454 97.3181 169.067 97.3181C161.989 97.3181 161.434 94.2163 161.434 87.1673L161.434 60.1161C161.434 47.7185 155.886 41.382 144.785 41.382 136.596 41.382 128.687 45.4623 122.864 53.2191 122.864 52.2311 122.997 51.2431 122.997 50.3975 122.997 46.5928 122.446 43.073 121.61 39.8288 115.788 41.6501 109.785 42.8303 103.707 43.3485L103.707 45.8898 105.787 45.8898C111.616 45.8898 112.585 47.7185 112.585 55.4706L112.585 91.5326C112.585 94.9193 110.091 97.4463 105.512 97.4463 104.956 97.4463 104.258 97.4463 103.707 97.3133L103.707 100.125 131.874 100.125 131.874 97.3133 130.483 97.3133C123.419 97.3181 122.864 94.2163 122.864 87.1721M4.75 6.58351 4.75 9.97026C18.069 9.97026 18.905 13.0625 18.905 23.3273L18.905 71.9958C18.905 91.1241 32.3618 102.097 55.2616 102.097 79.6813 102.097 92.3068 90.4163 92.3068 67.6353L92.3068 23.3273C92.3068 15.4518 97.1661 10.6685 105.493 9.97026L105.493 6.58351 74.9646 6.58351 74.9646 9.97026C84.3981 9.97026 88.4261 14.041 88.4261 23.3273L88.4261 67.6353C88.4261 87.4666 76.2091 97.5889 57.4798 97.5889 48.7351 97.5889 41.6623 94.3541 37.9193 90.4163 33.7583 85.9228 32.7845 79.7288 32.7845 69.7443L32.7845 23.3273C32.7845 13.205 33.1978 9.97026 46.9348 9.97026L46.9348 6.58351Z" transform="matrix(1 0 -0 1.00351 151 259)"/></g></g></g></g></svg>